<svg xmlns="http://www.w3.org/2000/svg" viewBox="0 0 623.62 255.12"><defs><style>.cls-1{fill:#fff;}.cls-2{fill:#2ecc71;}.cls-3{fill:#111f33;}</style></defs><g id="BG"><rect class="cls-1" width="623.62" height="255.12"/></g><g id="Logo"><g id="Layer_2" data-name="Layer 2"><g id="Layer_1-2" data-name="Layer 1-2"><path class="cls-2" d="M344.91,56.18l13.4-23.4a1.65,1.65,0,0,0-.54-2.26,1.63,1.63,0,0,0-2.25.55.22.22,0,0,0,0,.08L342,54.72a83.9,83.9,0,0,0-71.41,0L257.09,31.11a1.64,1.64,0,0,0-2.86,1.61l13.38,23.42c-24.19,12.64-41.16,36.8-43.21,65l163.66.09C386,93,369.1,68.85,344.91,56.18ZM267.69,94.77a8,8,0,1,1,8-8,8,8,0,0,1-8,8Zm77.11,0a8,8,0,1,1,8-8,8,8,0,0,1-8,8Z"/><path class="cls-2" d="M14.17,203.65a6.79,6.79,0,0,1,.42-2.36,5.46,5.46,0,0,1,1.2-1.93,5.76,5.76,0,0,1,2-1.27,7.18,7.18,0,0,1,2.67-.49,7.42,7.42,0,0,1,2.68.47,5.73,5.73,0,0,1,2,1.28,5.24,5.24,0,0,1,1.22,1.92,6.84,6.84,0,0,1,.42,2.37,6.35,6.35,0,0,1-.42,2.32,5.23,5.23,0,0,1-1.22,1.86,5.69,5.69,0,0,1-2,1.25,7.54,7.54,0,0,1-2.67.42,7.57,7.57,0,0,1-2.67-.45,5.61,5.61,0,0,1-2-1.25,5.48,5.48,0,0,1-1.2-1.84A6.42,6.42,0,0,1,14.17,203.65Z"/><path class="cls-3" d="M34.21,189.15a28.67,28.67,0,0,1,1.08-8.08,19,19,0,0,1,3.09-6.29,13.76,13.76,0,0,1,11.28-5.49,13.64,13.64,0,0,1,5.64,1.09,12.61,12.61,0,0,1,4.3,3.14V153.7h8.62v55.18h-7.8l-.41-4a12.3,12.3,0,0,1-4.4,3.47,14,14,0,0,1-6,1.2,13.38,13.38,0,0,1-6.36-1.49A14.42,14.42,0,0,1,38.4,204a19.74,19.74,0,0,1-3.09-6.25,27.05,27.05,0,0,1-1.1-7.84Zm8.59.75a23.28,23.28,0,0,0,.5,4.92,12.54,12.54,0,0,0,1.6,4,7.7,7.7,0,0,0,6.88,3.7,8.33,8.33,0,0,0,4.81-1.27,9.08,9.08,0,0,0,3-3.43V181a9.12,9.12,0,0,0-3-3.38,8.45,8.45,0,0,0-4.72-1.25,8,8,0,0,0-4.12,1,8.16,8.16,0,0,0-2.8,2.77,13.06,13.06,0,0,0-1.62,4.09,23,23,0,0,0-.52,5Z"/><path class="cls-3" d="M106.21,169.29c.69,0,1.38,0,2.08.07s1.36.12,2,.21,1.22.2,1.74.31a6.75,6.75,0,0,1,1.33.38l-1.22,8.44a35.2,35.2,0,0,0-7.79-.9,12.1,12.1,0,0,0-7,1.8,10.47,10.47,0,0,0-3.9,5v24.28H84.91V170h8l.4,6.07a18,18,0,0,1,5.62-5A14.56,14.56,0,0,1,106.21,169.29Z"/><path class="cls-3" d="M122.09,189.07a23.91,23.91,0,0,1,1.25-7.83A18.43,18.43,0,0,1,126.9,175a16.24,16.24,0,0,1,5.65-4.17,19.93,19.93,0,0,1,15.22,0,16.22,16.22,0,0,1,5.67,4.17,18.22,18.22,0,0,1,3.54,6.29,24.18,24.18,0,0,1,1.21,7.83v.75a24.75,24.75,0,0,1-1.22,7.87,18.3,18.3,0,0,1-3.54,6.25,16.28,16.28,0,0,1-5.66,4.16,18.12,18.12,0,0,1-7.58,1.51,18.37,18.37,0,0,1-7.63-1.51,16.33,16.33,0,0,1-5.68-4.16,18.69,18.69,0,0,1-3.56-6.25,24.23,24.23,0,0,1-1.25-7.87Zm8.58.75a21.6,21.6,0,0,0,.56,5,12.78,12.78,0,0,0,1.72,4.12,8.56,8.56,0,0,0,3,2.8,8.38,8.38,0,0,0,4.27,1,8.22,8.22,0,0,0,4.17-1,8.47,8.47,0,0,0,2.94-2.8,12.84,12.84,0,0,0,1.73-4.11,21.6,21.6,0,0,0,.56-5v-.76a21,21,0,0,0-.56-4.93,12.52,12.52,0,0,0-1.73-4.09,8.84,8.84,0,0,0-2.94-2.8,9.18,9.18,0,0,0-8.5,0,8.69,8.69,0,0,0-2.91,2.81,12.82,12.82,0,0,0-1.7,4.1,20.8,20.8,0,0,0-.58,4.91Z"/><path class="cls-3" d="M169.69,170h20.73v31.75h11.52v7.12H169.69v-7.12h12.08V177.17H169.69ZM181,160a4.53,4.53,0,0,1,1.29-3.34A4.88,4.88,0,0,1,186,155.3a5.06,5.06,0,0,1,3.68,1.31,4.87,4.87,0,0,1,0,6.65,5,5,0,0,1-3.68,1.31,4.82,4.82,0,0,1-3.63-1.31A4.54,4.54,0,0,1,181,160Z"/><path class="cls-3" d="M210.82,189.15a28.32,28.32,0,0,1,1.08-8.08,19.2,19.2,0,0,1,3.08-6.29,13.77,13.77,0,0,1,11.29-5.49,13.62,13.62,0,0,1,5.63,1.09,12.8,12.8,0,0,1,4.28,3.14V153.7h8.62v55.18H237l-.42-4a12.3,12.3,0,0,1-4.4,3.47,13.83,13.83,0,0,1-6,1.2,13.5,13.5,0,0,1-6.36-1.49A14.29,14.29,0,0,1,215,204a19.56,19.56,0,0,1-3.1-6.25,27,27,0,0,1-1.1-7.84Zm8.59.75a22.64,22.64,0,0,0,.5,4.92,12.1,12.1,0,0,0,1.6,4,7.68,7.68,0,0,0,6.88,3.71,8.38,8.38,0,0,0,4.82-1.27,9.18,9.18,0,0,0,3-3.43V181a9,9,0,0,0-3-3.38,8.41,8.41,0,0,0-4.72-1.25,8,8,0,0,0-4.11,1,8.19,8.19,0,0,0-2.81,2.77,13,13,0,0,0-1.61,4.09,22.35,22.35,0,0,0-.52,5Z"/><path class="cls-3" d="M273.11,202.77a9.68,9.68,0,0,0,3.07-.5,8.93,8.93,0,0,0,2.64-1.4,6.91,6.91,0,0,0,1.82-2.13,5.21,5.21,0,0,0,.63-2.65h8.12a10.85,10.85,0,0,1-1.28,5.26,14.16,14.16,0,0,1-3.56,4.29,18.07,18.07,0,0,1-11.37,4,18.64,18.64,0,0,1-7.86-1.55,15.93,15.93,0,0,1-5.65-4.21,18.15,18.15,0,0,1-3.39-6.22,24.8,24.8,0,0,1-1.13-7.5v-1.3a24.7,24.7,0,0,1,1.13-7.54,17.81,17.81,0,0,1,3.39-6.22,16.32,16.32,0,0,1,5.65-4.22,18.34,18.34,0,0,1,7.83-1.56,18.94,18.94,0,0,1,6.5,1.06,15.58,15.58,0,0,1,5.18,3,13.6,13.6,0,0,1,4.54,10.53h-8.1a7.16,7.16,0,0,0-2.27-5.42,8.48,8.48,0,0,0-2.62-1.67,8.91,8.91,0,0,0-3.31-.61,8.07,8.07,0,0,0-7.36,4,12.54,12.54,0,0,0-1.53,4,23.57,23.57,0,0,0-.45,4.59v1.29a24.08,24.08,0,0,0,.45,4.64,12.54,12.54,0,0,0,1.53,4,8.14,8.14,0,0,0,7.4,4Z"/><path class="cls-3" d="M298.69,189.07a23.91,23.91,0,0,1,1.25-7.83,18.58,18.58,0,0,1,3.55-6.29,16.19,16.19,0,0,1,5.66-4.17,19.93,19.93,0,0,1,15.22,0A16.22,16.22,0,0,1,330,175a18.38,18.38,0,0,1,3.54,6.29,24.18,24.18,0,0,1,1.21,7.83v.75a24.47,24.47,0,0,1-1.22,7.87,18.3,18.3,0,0,1-3.54,6.25,16.28,16.28,0,0,1-5.66,4.16,18.12,18.12,0,0,1-7.58,1.51,18.37,18.37,0,0,1-7.63-1.51,16.32,16.32,0,0,1-5.67-4.16,18.35,18.35,0,0,1-3.56-6.25,24.23,24.23,0,0,1-1.25-7.87Zm8.58.75a21.6,21.6,0,0,0,.56,5,12.9,12.9,0,0,0,1.73,4.12,8.72,8.72,0,0,0,3,2.8,8.47,8.47,0,0,0,4.27,1,8.29,8.29,0,0,0,4.17-1,8.66,8.66,0,0,0,2.94-2.8,12.9,12.9,0,0,0,1.73-4.12,21.6,21.6,0,0,0,.56-5v-.75a21.55,21.55,0,0,0-.56-4.93,12.52,12.52,0,0,0-1.73-4.09,8.84,8.84,0,0,0-2.94-2.8,9.13,9.13,0,0,0-8.5,0,8.47,8.47,0,0,0-2.94,2.8,12.7,12.7,0,0,0-1.71,4.09,21.53,21.53,0,0,0-.54,4.93Z"/><path class="cls-3" d="M352.17,170l.54,5.39a15,15,0,0,1,5.12-4.51,13.92,13.92,0,0,1,6.67-1.6,16.22,16.22,0,0,1,5.44.86,10.8,10.8,0,0,1,4.24,2.7,12.5,12.5,0,0,1,2.77,4.73,21.93,21.93,0,0,1,1,7v24.29h-8.58V184.74a12.75,12.75,0,0,0-.56-4,6.27,6.27,0,0,0-1.58-2.58,6,6,0,0,0-2.5-1.39,12.13,12.13,0,0,0-3.34-.41,9.27,9.27,0,0,0-4.93,1.25A9.74,9.74,0,0,0,353,181v27.88h-8.62V170Z"/><path class="cls-2" d="M393.72,169.33h21.09v32.31h11.73v7.23H393.72v-7.23H406v-25H393.72Zm11.55-10.23a4.63,4.63,0,0,1,1.32-3.38,5,5,0,0,1,3.69-1.34,5.09,5.09,0,0,1,3.75,1.34,5,5,0,0,1,0,6.76,5.07,5.07,0,0,1-3.75,1.33,4.9,4.9,0,0,1-3.69-1.33,4.63,4.63,0,0,1-1.32-3.38Z"/><path class="cls-2" d="M454.24,159.75v9.59h14.95v6.51H454.24v19a11.26,11.26,0,0,0,.53,3.69,5.88,5.88,0,0,0,1.48,2.34,5.28,5.28,0,0,0,2.23,1.23,11.17,11.17,0,0,0,2.82.35c.78,0,1.57,0,2.35-.13s1.61-.19,2.38-.3,1.48-.23,2.12-.36,1.19-.26,1.63-.39l1,6a13.25,13.25,0,0,1-2.28,1,21.2,21.2,0,0,1-2.92.75q-1.57.3-3.27.45c-1.13.11-2.25.17-3.33.17a17.18,17.18,0,0,1-5.42-.83,11.05,11.05,0,0,1-4.24-2.56,12,12,0,0,1-2.78-4.46,18.78,18.78,0,0,1-1-6.52V175.83h-9.65v-6.5h9.65v-9.59Z"/><path class="cls-2" d="M506.87,208.87a8,8,0,0,1-.61-1.72c-.15-.65-.29-1.36-.41-2.12a14.52,14.52,0,0,1-4.62,3.22,15.62,15.62,0,0,1-3,1,15.11,15.11,0,0,1-3.49.37,16.89,16.89,0,0,1-5.68-.9,13,13,0,0,1-4.35-2.5,11,11,0,0,1-3.78-8.42,11.19,11.19,0,0,1,4.73-9.72q4.74-3.36,13.58-3.36h6.39v-2.6a6.3,6.3,0,0,0-2.12-5,8.73,8.73,0,0,0-6-1.85,10.63,10.63,0,0,0-3.07.42,6.33,6.33,0,0,0-2.19,1.16,4.69,4.69,0,0,0-1.32,1.71,5.14,5.14,0,0,0-.41,2.12h-8.76a10.09,10.09,0,0,1,1.08-4.48,11.72,11.72,0,0,1,3.16-3.87,16.19,16.19,0,0,1,5.1-2.72,21.16,21.16,0,0,1,6.89-1,23.73,23.73,0,0,1,6.5.85,15.27,15.27,0,0,1,5.19,2.56,11.9,11.9,0,0,1,3.44,4.24,13.52,13.52,0,0,1,1.25,5.94v17.61a26,26,0,0,0,.38,4.74,15.55,15.55,0,0,0,1.11,3.71v.62Zm-10.52-6.32a11.18,11.18,0,0,0,3.15-.42,11.71,11.71,0,0,0,2.67-1.09,9.42,9.42,0,0,0,2.05-1.56,8.59,8.59,0,0,0,1.37-1.79v-7.42H500c-3.55,0-6.17.58-7.87,1.72a5.57,5.57,0,0,0-2.54,4.9,6.19,6.19,0,0,0,.42,2.25,4.65,4.65,0,0,0,1.22,1.79,6.06,6.06,0,0,0,2.08,1.19,9.58,9.58,0,0,0,3,.43Z"/><path class="cls-2" d="M528.17,152.74h21.38v48.9h12.06v7.23H528.17v-7.23h12.57V160H528.17Z"/><path class="cls-2" d="M587.16,193.05l1.5,4.75,11.1-28.47h9.69l-20,45.53a27.79,27.79,0,0,1-1.71,3.24,16.26,16.26,0,0,1-2.62,3.23,13.31,13.31,0,0,1-3.71,2.5,11.63,11.63,0,0,1-5,1,15.22,15.22,0,0,1-2.43-.2c-.73-.12-1.46-.27-2.17-.46l1.25-6.79h.69c.28,0,.6,0,.92.05l.89.06c.28,0,.51,0,.68,0a3.76,3.76,0,0,0,2.28-.75,9.3,9.3,0,0,0,1.77-1.72,12,12,0,0,0,1.25-1.9c.33-.62.57-1,.71-1.25l2.6-4.9L568,169.3h9.65Z"/></g></g></g></svg>